<svg xmlns="http://www.w3.org/2000/svg" viewBox="0 0 26 26" enable-background="new 0 0 26 26">
    <path style="text-indent:0;text-align:start;line-height:normal;text-transform:none;block-progression:tb;-inkscape-font-specification:Bitstream Vera Sans"
          d="M 13 0 C 9.3 0 6.3 2.49375 6 5.59375 C 6.9 5.09375 7.9 4.8 9 4.5 C 9 3.7 9.7 3 10.5 3 C 10.7 3 10.9875 3.0875 11.1875 3.1875 C 11.4875 2.4875 12.2 2 13 2 C 13.8 2 14.5125 2.4875 14.8125 3.1875 C 15.0125 3.0875 15.3 3 15.5 3 C 16.3 3 17 3.7 17 4.5 C 18.1 4.8 19.1 5.09375 20 5.59375 C 19.7 2.49375 16.7 -1.1842379e-15 13 0 z M 12.90625 5 C 8.5338273 5 4.5122171 6.8280079 3.34375 9.375 C 3.29549 9.4339122 3.267823 9.464229 3.21875 9.53125 C 2.8273704 10.065773 2.353856 10.907908 1.875 12.125 C 0.91728806 14.559185 0 18.555512 0 25 A 1.0001 1.0001 0 1 0 2 25 C 2 19.687048 2.6371879 16.18705 3.34375 13.9375 C 3.6325288 15.173869 4 15.90625 4 15.90625 C 4 15.90625 4.1063647 15.9074 4.125 15.90625 C 4.054901 16.121795 4 16.346039 4 16.59375 C 4 17.758749 4.8082997 18.601179 5.78125 19.03125 C 6.1683965 20.784251 6.9296153 22.432822 8.09375 23.6875 C 9.3656411 25.058316 11.077083 26 13 26 C 14.922917 26 16.634359 25.058316 17.90625 23.6875 C 19.070385 22.432822 19.831604 20.784251 20.21875 19.03125 C 21.1917 18.601179 22 17.758749 22 16.59375 C 22 16.346039 21.945099 16.121795 21.875 15.90625 C 21.885225 15.906295 21.896044 15.90625 21.90625 15.90625 C 22.20287 15.60963 22.450304 14.75506 22.625 13.78125 C 23.349413 16.02408 24 19.574987 24 25 A 1.0001 1.0001 0 1 0 26 25 C 26 18.555512 25.082712 14.559185 24.125 12.125 C 23.646144 10.907908 23.17263 10.065773 22.78125 9.53125 C 22.672266 9.3824059 22.600365 9.2960958 22.5 9.1875 C 21.218938 6.6888988 17.189884 5 12.90625 5 z M 14 8.90625 C 14 11.70625 18 13.90625 18 13.90625 A 1.0001 1.0001 0 0 0 18 14 L 18 15 L 18 16 L 19 16 C 19.05 16 19.484432 16.0603 19.71875 16.1875 C 19.953068 16.314701 20 16.328365 20 16.59375 C 20 17.127083 19.72875 17.356528 19.28125 17.40625 L 18.53125 17.5 L 18.40625 18.21875 C 18.138587 19.780119 17.415609 21.289566 16.4375 22.34375 C 15.459391 23.397934 14.277083 24 13 24 C 11.722917 24 10.540609 23.397934 9.5625 22.34375 C 8.5843911 21.289566 7.8614133 19.780119 7.59375 18.21875 L 7.46875 17.5 L 6.71875 17.40625 C 6.2712499 17.356528 6 17.127083 6 16.59375 C 6 16.328365 6.0469318 16.314701 6.28125 16.1875 C 6.5155682 16.060299 6.95 16 7 16 L 8 16 L 8 15 L 8 14 C 8.0027059 13.967678 8 13.939666 8 13.90625 A 1.0001 1.0001 0 0 0 8 13.8125 C 8.2086155 12.1002 14 11.852163 14 8.90625 z"/>
</svg>