<?xml version="1.0" standalone="no"?>
<!DOCTYPE svg PUBLIC "-//W3C//DTD SVG 20010904//EN"
 "http://www.w3.org/TR/2001/REC-SVG-20010904/DTD/svg10.dtd">
<svg version="1.0" xmlns="http://www.w3.org/2000/svg"
 width="512.000000pt" height="512.000000pt" viewBox="0 0 512.000000 512.000000"
 preserveAspectRatio="xMidYMid meet">

<g transform="translate(0.000000,512.000000) scale(0.100000,-0.100000)"
fill="#000000" stroke="none">
<path d="M2285 4570 c-875 -55 -1621 -336 -2066 -779 -87 -87 -113 -119 -142
-181 -46 -97 -61 -179 -54 -283 10 -142 68 -269 167 -369 48 -48 68 -60 131
-80 67 -21 92 -23 254 -22 150 1 203 5 315 27 278 54 473 130 555 218 70 75
89 121 135 325 25 111 37 123 151 165 439 160 1145 166 1614 13 108 -35 152
-59 169 -92 8 -15 23 -70 34 -122 37 -168 70 -238 145 -308 120 -110 427 -203
770 -233 140 -12 277 0 364 32 145 53 273 276 273 474 0 165 -54 279 -200 426
-411 413 -1093 691 -1900 774 -181 18 -543 26 -715 15z m740 -274 c728 -89
1306 -322 1683 -681 146 -137 175 -276 91 -423 -47 -83 -58 -87 -239 -86 -196
1 -408 39 -583 104 -123 46 -142 72 -181 248 -29 129 -61 200 -114 255 -51 52
-99 79 -222 122 -290 101 -599 142 -995 132 -313 -8 -540 -43 -766 -117 -145
-48 -204 -77 -257 -130 -57 -57 -87 -125 -117 -260 -31 -143 -45 -173 -92
-204 -171 -113 -760 -194 -862 -119 -32 24 -87 131 -93 180 -7 56 9 147 33
189 62 110 282 288 514 417 381 212 896 352 1445 391 128 9 630 -3 755 -18z"/>
<path d="M2320 3064 c-19 -2 -80 -9 -135 -15 -401 -42 -795 -189 -1090 -406
-119 -88 -324 -296 -405 -411 -216 -306 -355 -663 -400 -1023 -37 -300 132
-570 415 -667 l80 -27 1775 0 1775 0 80 27 c283 97 452 367 415 667 -45 360
-184 717 -400 1023 -81 115 -286 323 -405 411 -285 210 -635 345 -1045 402
-109 16 -576 29 -660 19z m550 -265 c809 -76 1380 -516 1620 -1249 56 -171 84
-309 85 -420 0 -82 -4 -103 -26 -151 -37 -79 -90 -133 -167 -171 l-67 -33
-1755 0 -1755 0 -67 33 c-77 37 -128 90 -167 172 -23 48 -26 67 -25 150 3 239
136 628 301 880 394 601 1099 876 2023 789z"/>
<path d="M2455 2554 c-348 -57 -608 -321 -655 -667 -43 -306 123 -626 399
-771 385 -202 851 -52 1047 336 216 430 -22 955 -491 1082 -61 17 -245 28
-300 20z m238 -269 c172 -45 329 -209 366 -383 76 -359 -245 -685 -601 -611
-83 17 -191 76 -254 138 -162 160 -200 390 -97 594 60 120 191 228 316 262 69
18 199 19 270 0z"/>
</g>
</svg>
