<?xml version="1.0" standalone="no"?>
<!DOCTYPE svg PUBLIC "-//W3C//DTD SVG 20010904//EN"
 "http://www.w3.org/TR/2001/REC-SVG-20010904/DTD/svg10.dtd">
<svg version="1.0" xmlns="http://www.w3.org/2000/svg"
 width="2000.000000pt" height="2000.000000pt" viewBox="0 0 2000.000000 2000.000000"
 preserveAspectRatio="xMidYMid meet">

<g transform="translate(0.000000,2000.000000) scale(0.100000,-0.100000)"
fill="#000000" stroke="none">
<path d="M9621 16629 c-1013 -55 -2005 -258 -3171 -649 -694 -233 -1619 -684
-2395 -1168 -248 -155 -319 -207 -392 -287 -132 -144 -169 -247 -222 -621 -41
-286 -117 -1089 -124 -1302 -2 -81 -1 -84 26 -108 15 -13 39 -24 52 -24 38 0
3283 917 3545 1002 262 85 308 129 330 318 16 140 34 195 73 224 89 67 474
185 882 269 545 113 850 132 2185 132 1404 0 1665 -20 2260 -171 316 -81 799
-234 998 -317 l77 -33 3 -51 c2 -33 -6 -86 -22 -145 -31 -112 -34 -208 -8
-258 33 -63 162 -111 786 -290 628 -180 2307 -627 2649 -706 123 -28 142 -11
177 160 68 334 81 605 41 866 -74 482 -206 814 -411 1033 -284 304 -1195 842
-2075 1224 -1179 512 -2606 824 -4135 903 -222 11 -914 11 -1129 -1z"/>
<path d="M10055 13920 c-381 -23 -816 -97 -1090 -187 -119 -39 -365 -138 -458
-185 -222 -111 -357 -253 -399 -422 -43 -168 -44 -610 -3 -1151 8 -104 16
-207 17 -229 l3 -39 -100 -33 c-127 -43 -236 -96 -450 -219 -503 -289 -908
-582 -1208 -875 -570 -555 -1110 -1622 -1446 -2855 -180 -662 -301 -1600 -331
-2575 -10 -341 1 -696 25 -812 17 -85 87 -235 149 -322 126 -176 368 -342 532
-365 361 -50 2798 -77 6189 -67 2498 7 3238 16 3460 41 324 37 640 94 774 139
186 63 317 219 355 424 55 292 78 844 56 1327 -44 944 -142 1751 -281 2310
-200 800 -432 1386 -751 1894 -278 442 -667 858 -1206 1289 -268 214 -843 556
-1029 612 -40 12 -77 28 -84 36 -9 11 -10 66 -5 217 24 749 19 1005 -24 1174
-54 211 -259 418 -537 544 -148 68 -354 143 -478 174 -434 111 -1207 182
-1680 155z m840 -2885 c398 -47 757 -173 1171 -410 573 -330 939 -723 1259
-1350 194 -383 303 -736 336 -1089 15 -160 6 -602 -15 -772 -50 -393 -150
-730 -321 -1079 -167 -341 -364 -624 -600 -861 -200 -201 -400 -344 -680 -486
-478 -242 -798 -338 -1228 -369 -234 -16 -977 -6 -1146 15 -306 39 -524 102
-766 220 -553 271 -1127 851 -1436 1452 -163 319 -255 684 -289 1149 -15 211
-13 588 5 740 37 316 166 818 249 970 18 33 48 87 66 120 88 161 304 475 467
680 48 61 157 180 242 266 135 134 176 169 306 255 83 54 203 127 267 162 375
203 830 341 1263 382 61 5 126 12 145 13 114 11 587 6 705 -8z"/>
<path d="M10205 10806 c-285 -71 -398 -405 -214 -637 121 -153 366 -185 533
-70 59 41 93 83 129 159 107 228 -30 498 -281 551 -65 14 -102 13 -167 -3z"/>
<path d="M10310 9630 c-165 -12 -341 -46 -478 -92 -210 -70 -661 -308 -677
-358 -3 -10 -70 -82 -148 -161 -296 -299 -411 -508 -494 -896 -25 -119 -27
-144 -27 -373 -1 -217 2 -257 22 -348 110 -503 331 -866 690 -1132 193 -144
409 -252 627 -315 341 -98 750 -83 1080 40 281 104 564 295 812 547 342 346
475 618 535 1088 21 168 16 489 -11 634 -90 499 -384 883 -860 1125 -376 191
-716 267 -1071 241z"/>
<path d="M12800 8406 c-155 -43 -263 -164 -292 -326 -28 -163 71 -344 230
-418 50 -24 69 -27 162 -27 93 0 112 3 162 27 120 56 204 168 228 305 11 58
10 78 -4 133 -24 92 -51 144 -105 199 -99 102 -249 144 -381 107z"/>
<path d="M7680 8140 c-66 -14 -144 -56 -193 -104 -204 -198 -148 -526 111
-649 61 -29 76 -32 162 -32 87 0 101 3 165 34 115 56 187 145 221 274 20 75
17 118 -12 205 -54 163 -181 264 -346 276 -35 3 -83 1 -108 -4z"/>
<path d="M10528 5596 c-110 -32 -219 -130 -258 -234 -83 -218 24 -449 240
-522 97 -33 214 -26 302 18 130 64 208 183 216 328 10 180 -73 317 -235 391
-69 32 -190 41 -265 19z"/>
<path d="M6895 13116 c-635 -162 -3492 -962 -3555 -996 -44 -24 -41 -59 35
-367 129 -524 187 -654 313 -698 167 -58 371 -23 1612 274 1199 287 1716 423
1858 491 286 136 392 274 392 509 0 166 -46 467 -91 598 -50 147 -165 253
-274 253 -22 -1 -152 -29 -290 -64z"/>
<path d="M13613 13046 c-43 -55 -163 -764 -163 -966 0 -73 4 -94 29 -147 67
-141 233 -248 593 -382 570 -212 1708 -590 2118 -703 135 -37 157 -40 310 -45
128 -4 182 -1 240 11 207 44 322 157 450 443 110 247 167 459 157 589 -9 122
-44 170 -156 213 -174 67 -907 285 -2066 615 -1174 333 -1377 389 -1436 394
-51 4 -58 2 -76 -22z"/>
</g>
</svg>
