<svg version="1.0" xmlns="http://www.w3.org/2000/svg" width="682.667" height="682.667" viewBox="0 0 512 512"><path d="M116 1.5c-28.7 4-55 17.3-76.1 38.4C18.5 61.4 5.5 87.4 1.5 117c-1.7 12.3-2 48.2-.5 56.1 3.4 18 17.9 32.5 35.9 35.9 7 1.3 69.2 1.3 76.2 0 18-3.4 32.5-17.9 35.9-35.9.5-3 1-13.4 1-23.3 0-20.8 1-24.2 8-27.8 3.8-2 5.7-2 98-2s94.2 0 98 2c7 3.6 8 7 8 27.8 0 9.9.5 20.3 1 23.3 3.4 18 17.9 32.5 35.9 35.9 7 1.3 69.2 1.3 76.2 0 18-3.4 32.5-17.9 35.9-35.9 1.5-7.9 1.2-43.8-.5-56.1-7.1-52.7-45-96.6-96.4-111.6C395.9.1 395 0 255 .1 153.2.2 123.5.5 116 1.5zm277.6 30c29.5 5.1 54.4 21.2 70.8 45.8 8.2 12.3 12.3 22.5 16.2 40.4l.4 2.3h-91.5l-3.4-6.5c-5.6-10.9-17.4-19.7-29.9-22.4-7.5-1.6-192.9-1.6-200.4 0-12.5 2.7-24.3 11.5-29.9 22.4l-3.4 6.5H31l.4-2.3c3.9-17.9 8-28.1 16.2-40.4 16.1-24.2 41.1-40.5 69.9-45.7 12.4-2.2 263.3-2.3 276.1-.1zM120 159c0 11.2-2 15.9-8 19-3.7 1.9-5.8 2-37 2s-33.3-.1-37-2c-6-3.1-8-7.8-8-19v-9h90v9zm362 0c0 11.2-2 15.9-8 19-3.7 1.9-5.8 2-37 2s-33.3-.1-37-2c-6-3.1-8-7.8-8-19v-9h90v9z"/><path d="M216.1 151.1c-12.8 2.5-25.7 12.5-31.1 24.1-3.7 7.9-5 14.6-5 25.9v8.9h-16.3c-17.7 0-23.9 1.1-32.8 5.6-6.3 3.1-13.3 9.5-16.4 14.8-2.4 4.2-75.8 181.6-80.1 193.7-1.3 3.6-2.8 9.5-3.3 13-1.4 8.2-1.4 31-.1 38 3.4 18 17.9 32.5 35.9 35.9 7.4 1.4 370.8 1.4 378.2 0 18-3.4 32.5-17.9 35.9-35.9 1.3-6.9 1.3-29.8 0-37.9-.6-3.5-1.8-8.4-2.6-11-3-8.7-79.5-193.5-81.4-196.8-2.9-4.6-10.1-10.9-15.9-13.8-8.9-4.5-15.1-5.6-32.8-5.6H332v-8.9c0-4.8-.5-11.2-1-14.2-3.4-18-17.9-32.5-35.9-35.9-6.5-1.2-72.7-1.2-79 .1zM294 182c6 3.1 8 7.8 8 19v9h-92v-9c0-11 2-15.9 7.8-18.9 3.5-1.9 5.8-2 38-2.1 32.4 0 34.5.1 38.2 2zm72.8 59.9c2 1.1 4.2 2.8 4.9 3.9 1.4 2.3 74.4 179.4 77.6 188.2 1.5 4.3 2.1 8.9 2.4 20.6.5 13.9.4 15.3-1.6 19.2-1.4 2.8-3.5 4.9-6.1 6.2-3.9 2-5.5 2-188 2s-184.1 0-188-2c-2.6-1.3-4.7-3.4-6.1-6.2-2-3.9-2.1-5.3-1.6-19.2.3-11.7.9-16.3 2.4-20.6 4.1-11.2 76.5-186.5 77.9-188.4.8-1.1 2.9-2.8 4.7-3.8 3-1.6 10.7-1.7 110.5-1.8 103.8 0 107.4.1 111 1.9z"/><path d="M240.7 271.5c-27.6 5.3-51.9 23.7-64.2 49-7 14.2-8.8 22.4-8.8 39.5s1.8 25.3 8.8 39.5c11.2 22.9 33 40.8 58 47.6 11.5 3.2 33.5 3.2 45 0 25-6.8 46.8-24.7 58-47.6 7-14.2 8.8-22.4 8.8-39.5s-1.8-25.3-8.8-39.5c-11.2-23-33.3-41.1-58-47.5-10.6-2.8-28.3-3.5-38.8-1.5zm28.8 30c27 5.7 47.5 30.9 47.5 58.5 0 32.4-27.6 60-60 60-27.6 0-52.8-20.5-58.5-47.5-4.3-20.4 1.6-39.7 16.4-54.6 14.9-14.9 34.2-20.7 54.6-16.4z"/><path d="M247.5 331.7c-21.1 7.6-27.2 33.6-11.5 49.3 6.1 6.1 11.9 8.5 21 8.5s14.9-2.4 21-8.5 8.5-11.9 8.5-21-2.4-14.9-8.5-21c-8-8-20.3-10.9-30.5-7.3z"/></svg>