<svg xmlns="http://www.w3.org/2000/svg" viewBox="0 0 26 26"
     enable-background="new 0 0 26 26">
    <path style="text-indent:0;text-align:start;line-height:normal;text-transform:none;block-progression:tb;-inkscape-font-specification:Bitstream Vera Sans"
          d="M 13 0 C 6.6 0 4 4.1 4 9 L 4 9.875 C 3.4573707 10.320415 3 11.064995 3 12 C 3 13.259628 3.8670886 14.215719 5 14.65625 C 5.7142419 16.470447 6.6284873 18.211018 7.875 19.5625 C 9.1932117 20.991719 10.935714 22 13 22 C 15.105556 22 16.848499 20.995462 18.15625 19.5625 C 19.39189 18.208554 20.291102 16.462645 21 14.65625 C 22.104995 14.225004 23 13.296268 23 12 C 23 11.039081 22.546234 10.289273 22 9.84375 L 22 9 C 22 5.7 21.5875 2.00625 17.1875 2.40625 C 17.1875 2.40625 16.8 0 13 0 z M 17 4 C 17.6 9.2 19 6.8 19 11 L 19 11.46875 L 20.15625 11.28125 C 20.15625 11.28125 20.436535 11.26685 20.65625 11.34375 C 20.875965 11.42065 21 11.333333 21 12 C 21 12.615152 20.620861 12.947289 20.09375 13 L 19.46875 13.0625 L 19.25 13.65625 C 18.576532 15.436128 17.729749 17.076712 16.6875 18.21875 C 15.645251 19.360788 14.494444 20 13 20 C 11.564286 20 10.400538 19.364531 9.34375 18.21875 C 8.2869617 17.072969 7.4206786 15.428758 6.75 13.65625 L 6.53125 13.0625 L 5.90625 13 C 5.444818 12.953857 5 12.466667 5 12 C 5 11.400877 5.1036989 11.465019 5.34375 11.375 C 5.5838011 11.28498 5.90625 11.28125 5.90625 11.28125 L 7 11.40625 L 7 11 C 7 3.4 17 10.3 17 4 z M 8.375 21.96875 C 8.1640625 22.001563 8 22.2 8 22.5 L 8 25.59375 C 8 25.89375 8.29375 26.10625 8.59375 25.90625 L 11.59375 24.6875 L 11.59375 23.1875 L 8.59375 22 C 8.51875 21.975 8.4453125 21.957812 8.375 21.96875 z M 17.625 21.96875 C 17.554688 21.959375 17.48125 21.975 17.40625 22 L 14.40625 23.1875 L 14.40625 24.6875 L 17.40625 25.90625 C 17.70625 26.10625 18 25.9 18 25.5 L 18 22.40625 C 18 22.18125 17.835938 21.996875 17.625 21.96875 z M 12.5 23 C 12.2 23 12 23.2 12 23.5 L 12 24.5 C 12 24.8 12.2 25 12.5 25 L 13.5 25 C 13.8 25 14 24.8 14 24.5 L 14 23.5 C 14 23.2 13.8 23 13.5 23 L 12.5 23 z"/>
</svg>