<?xml version="1.0" standalone="no"?>
<!DOCTYPE svg PUBLIC "-//W3C//DTD SVG 20010904//EN"
 "http://www.w3.org/TR/2001/REC-SVG-20010904/DTD/svg10.dtd">
<svg version="1.0" xmlns="http://www.w3.org/2000/svg"
 width="32.000000pt" height="32.000000pt" viewBox="0 0 32.000000 32.000000"
 preserveAspectRatio="xMidYMid meet">

<g transform="translate(0.000000,32.000000) scale(0.100000,-0.100000)"
fill="#000000" stroke="none">
<path d="M30 272 c-32 -33 -39 -71 -17 -107 7 -12 43 -49 80 -84 l68 -63 67
64 c37 34 72 72 79 83 22 35 15 74 -17 107 -27 26 -35 29 -68 24 -20 -4 -48
-7 -62 -7 -14 0 -42 3 -62 7 -33 5 -41 2 -68 -24z m103 -13 l26 -20 29 21 c46
34 93 15 107 -42 6 -24 -1 -36 -56 -93 -34 -36 -69 -65 -76 -65 -18 0 -130
106 -138 130 -8 26 12 69 37 80 34 13 43 12 71 -11z"/>
</g>
</svg>
