<svg xmlns="http://www.w3.org/2000/svg" viewBox="0 0 50 50">
    <path d="M 25 0 C 23.978 0 22.02225 0.20675 20.40625 1.59375 C 20.17125 1.77075 19.669 2.207 18.75 3 L 31.25 3 C 30.448 2.294 29.87125 1.785 29.65625 1.625 C 27.99025 0.198 26.021 2.9605947e-16 25 0 z M 9 5 C 8.448 5 8 5.448 8 6 L 8 9 L 8 12.4375 L 8 25.25 L 16.3125 31.78125 C 18.4585 30.09425 20.03125 28.87075 20.40625 28.59375 C 22.42225 27.11675 24.433 27 25 27 C 25.971 27 27.863 27.216 29.625 28.625 C 29.986 28.914 31.511 30.12225 33.625 31.78125 L 42 25.25 L 42 12.4375 L 42 10 L 42 6 C 42 5.448 41.553 5 41 5 L 35 5 L 15 5 L 9 5 z M 24 10 L 26 10 L 26 16 L 32 16 L 32 18 L 26 18 L 26 24 L 24 24 L 24 18 L 18 18 L 18 16 L 24 16 L 24 10 z M 6 14.21875 C 2.779 17.07275 0.34375 19.25 0.34375 19.25 L 6 23.6875 L 6 14.21875 z M 44 14.21875 L 44 23.6875 L 49.65625 19.25 C 49.65625 19.25 47.221 17.07275 44 14.21875 z M 0 21.53125 L 0 44.65625 C 3.454 41.92525 9.95675 36.8085 14.71875 33.0625 L 8 27.8125 L 7.71875 27.59375 L 0 21.53125 z M 50 21.53125 L 44 26.21875 L 42 27.8125 L 42 27.78125 L 35.25 33.0625 C 39.996 36.7885 46.518 41.894 50 44.625 L 50 21.53125 z M 25 29 C 24.706 29 23.15875 29.07075 21.59375 30.21875 C 20.32275 31.15075 4.403 43.7055 0 47.1875 L 0 49 C 0 49.553 0.448 50 1 50 L 49 50 C 49.553 50 50 49.553 50 49 L 50 47.15625 C 45.497 43.62425 29.655 31.2105 28.375 30.1875 C 27.09 29.1575 25.709 29 25 29 z"/>
</svg>