<svg version="1.0" xmlns="http://www.w3.org/2000/svg" width="42.667" height="42.667" viewBox="0 0 32 32"><path d="M4 16v16h24V6.4l-3.3-3.2C21.5.1 21.1 0 12.7 0H4v16zM20.2 3.7c.2 2.2.9 2.9 3.1 3.1l2.7.3V31H6V1h6.9c6.9 0 7 0 7.3 2.7z"/><path d="M9 5c0 .5 1.8 1 4 1s4-.5 4-1c0-.6-1.8-1-4-1s-4 .4-4 1zM12.3 9.7c2 .2 5.4.2 7.5 0 2-.2.3-.4-3.8-.4s-5.8.2-3.7.4zM9 14c0 .6 3 1 7 1s7-.4 7-1-3-1-7-1-7 .4-7 1zM9 18c0 .6 3 1 7 1s7-.4 7-1-3-1-7-1-7 .4-7 1zM12.3 22.7c2 .2 5.4.2 7.5 0 2-.2.3-.4-3.8-.4s-5.8.2-3.7.4zM9 27c0 .6 3 1 7 1s7-.4 7-1-3-1-7-1-7 .4-7 1z"/></svg>