<svg xmlns="http://www.w3.org/2000/svg" viewBox="0 0 24 24"
     enable-background="new 0 0 24 24">
    <path d="M 12 2 C 8.7 2 6 4.7 6 8 C 6 13.2 12 19.09375 12 19.09375 C 12 19.09375 18 13.1 18 8 C 18 4.7 15.3 2 12 2 z M 12 5.90625 C 13.1 5.90625 14.09375 6.9 14.09375 8 C 14.09375 9.2 13.2 10.09375 12 10.09375 C 10.8 10.09375 9.90625 9.1 9.90625 8 C 9.90625 6.8 10.9 5.90625 12 5.90625 z M 6.78125 15.125 C 5.520437 15.387669 4.4624491 15.707617 3.625 16.15625 C 3.2062754 16.380567 2.8317923 16.633144 2.53125 16.96875 C 2.2307077 17.304356 2 17.791204 2 18.3125 C 2 19.131944 2.5308238 19.732131 3.125 20.15625 C 3.7191762 20.580369 4.4636546 20.892221 5.34375 21.15625 C 7.1039407 21.684307 9.42 22 12 22 C 14.58 22 16.896059 21.684307 18.65625 21.15625 C 19.536345 20.892221 20.280824 20.580369 20.875 20.15625 C 21.469176 19.732131 22 19.131944 22 18.3125 C 22 17.269907 21.22078 16.5932 20.375 16.125 C 19.52922 15.6568 18.440671 15.33907 17.15625 15.125 L 16.84375 17.09375 C 17.959329 17.27968 18.85203 17.5682 19.40625 17.875 C 19.77573 18.079533 19.915984 18.251048 19.96875 18.3125 C 19.937446 18.348024 19.874785 18.419875 19.71875 18.53125 C 19.406676 18.754006 18.838655 19.026529 18.09375 19.25 C 16.603941 19.696943 14.42 20 12 20 C 9.58 20 7.3960593 19.696943 5.90625 19.25 C 5.1613454 19.026529 4.5933238 18.754006 4.28125 18.53125 C 4.1360157 18.427582 4.0576869 18.346835 4.03125 18.3125 C 4.1057077 18.229356 4.2812246 18.088183 4.5625 17.9375 C 5.1250509 17.636133 6.079563 17.331081 7.21875 17.09375 L 6.78125 15.125 z"/>
</svg>